<?xml version="1.0" encoding="UTF-8"?> <!--?xml version="1.0" encoding="utf-8"?--> <!-- Generator: Adobe Illustrator 22.0.1, SVG Export Plug-In . SVG Version: 6.00 Build 0) --> <svg xmlns="http://www.w3.org/2000/svg" xmlns:xlink="http://www.w3.org/1999/xlink" id="Capa_1" x="0px" y="0px" viewBox="0 0 804.9 2353.3" style="" xml:space="preserve"> <style type="text/css"> .st0{fill:none;stroke:#910000;stroke-width:3;stroke-miterlimit:10;} .st1{fill:none;stroke:#910000;stroke-miterlimit:10;} .st2{fill:#FFFFFF;stroke:#720000;stroke-width:3;stroke-miterlimit:10;} .st3{fill:#720000;} .st4{fill:none;stroke:#FFFFFF;stroke-width:11;stroke-miterlimit:10;} .st5{fill:#BC1B1B;stroke:#FFFFFF;stroke-width:18;stroke-miterlimit:10;} </style> <path class="st0 MHeMzZqP_0" d="M584,2572.7l0.8,457.7"></path> <g> <path class="st1 MHeMzZqP_1" d="M593.4,994l-97.5-97.5v-55.4l44.6-44.6v-88.7l28.1-28.1v-48.9V502.3l25-25V-6.4"></path> <path class="st0 MHeMzZqP_2" d="M574.7-16.4v498.2l-29.5,29.4v89.6l-12.5,12.5v54.2l-16.2,16.2v119.4l-48.7,48.7v41.4l77.9,77.9v185.6v189.4 l62.3,62.3v263.5l-39,38.9v117.5"></path> <path class="st0 MHeMzZqP_3" d="M522.5,4.7v93.4l32.4,31.2v348l-64.7,65.6v186.8l15,15.1v51.7h-58.4l-48.9,48.9v76.7"></path> <path class="st1 MHeMzZqP_4" d="M376.8,885.4v-37.8l-17.3-17.2v-40.6l47-47h50.3l18.8-18.8V526.2l66.2-66.2V119.3"></path> <path class="st0 MHeMzZqP_5" d="M530.2,107v198l-28.3,28.3v46.2l28.1,28v29.8l-46.6,46.6h-57.7L345.6,564H280v114.6h-44.4L197.2,717"></path> <path class="st1 MHeMzZqP_6" d="M475.8,505.1l-20.1,20v92.3v12.3l-35.5,27.8l-16.7-16.7V539.6l55-55.1"></path> <path class="st1 MHeMzZqP_7" d="M384.6,441.7h32.2l27.3-27.2h52.8l20.3-20.3"></path> <path class="st1 MHeMzZqP_8" d="M336.8,379.5h47.8l22.8,22.8H498l13.1-13.1"></path> <path class="st1 MHeMzZqP_9" d="M361.2,523.9h-41.3L307.8,536h-31.4l-28,28.1v21.6"></path> <path class="st1 MHeMzZqP_10" d="M367.9,654.1v99l-21.1,21.1h-35.6l-38.9,38.9"></path> <path class="st1 MHeMzZqP_11" d="M232.2,881l74.5-74.5h39v28.9l-9.5,9.4v37.3L297,921.3"></path> <path class="st1 MHeMzZqP_12" d="M237.8,1016.6l112.3-112.3v-48.9l17.2-17.2"></path> <path class="st1 MHeMzZqP_13" d="M326.7,564.1v132.3L221.1,802h-56.7l-26.7,26.7H49.9"></path> <path class="st0 MHeMzZqP_14" d="M597,581.8v39l-18.4,18.3v38.4l17,16.9v62v8.8L549,811.8v65.8l10.6,10.7"></path> <path class="st1 MHeMzZqP_15" d="M617.9,789.8l-42.1,39.4v120.7l20.6,20.6"></path> <path class="st1 MHeMzZqP_16" d="M576.9,600.8v-35.6l16.7-17.3v-70.6"></path> <path class="st1 MHeMzZqP_17" d="M618.3,482.3l-15.5-8.5V303.3v-23l6.8-6.7v-49.5l9.5-7.1"></path> <path class="st1 MHeMzZqP_18" d="M618.8,197.7l-8.9,6.2l-0.3,20.2"></path> <path class="st2 MHeMzZqP_19" d="M334.2,379.3c0-1.6,1.3-2.9,2.9-2.9s2.9,1.3,2.9,2.9l0,0c0,1.6-1.3,2.9-2.9,2.9S334.2,380.9,334.2,379.3 L334.2,379.3"></path> <path class="st3 MHeMzZqP_20" d="M381.7,442.1c0-1.6,1.3-2.9,2.9-2.9s2.9,1.3,2.9,2.9l0,0c0,1.6-1.3,2.9-2.9,2.9S381.7,443.7,381.7,442.1 L381.7,442.1"></path> <path class="st2 MHeMzZqP_21" d="M358.6,524c0-1.6,1.3-2.9,2.9-2.9s2.9,1.3,2.9,2.9l0,0c0,1.6-1.3,2.9-2.9,2.9S358.6,525.6,358.6,524L358.6,524 "></path> <path class="st3 MHeMzZqP_22" d="M245.5,585.8c0-1.6,1.3-2.9,2.9-2.9c1.6,0,2.9,1.3,2.9,2.9s-1.3,2.9-2.9,2.9S245.5,587.4,245.5,585.8"></path> <path class="st3 MHeMzZqP_23" d="M364.7,655c0-1.6,1.3-2.9,2.9-2.9s2.9,1.3,2.9,2.9l0,0c0,1.6-1.3,2.9-2.9,2.9S364.7,656.6,364.7,655L364.7,655 "></path> <path class="st3 MHeMzZqP_24" d="M472.9,505c0-1.6,1.3-2.9,2.9-2.9s2.9,1.3,2.9,2.9s-1.3,2.9-2.9,2.9C474.2,507.9,472.9,506.6,472.9,505"></path> <path class="st3 MHeMzZqP_25" d="M574,600.7c0-1.6,1.3-2.9,2.9-2.9c1.6,0,2.9,1.3,2.9,2.9l0,0c0,1.6-1.3,2.9-2.9,2.9 C575.3,603.6,574,602.3,574,600.7L574,600.7"></path> <path class="st2 MHeMzZqP_26" d="M556.8,888.5c0-1.6,1.3-2.9,2.9-2.9c1.6,0,2.9,1.3,2.9,2.9l0,0c0,1.6-1.3,2.9-2.9,2.9S556.8,890.1,556.8,888.5 L556.8,888.5"></path> <path class="st2 MHeMzZqP_27" d="M395,922.1c0-1.6,1.3-2.9,2.9-2.9s2.9,1.3,2.9,2.9l0,0c0,1.6-1.3,2.9-2.9,2.9S395,923.7,395,922.1L395,922.1"></path> <path class="st2 MHeMzZqP_28" d="M294.5,921.1c0-1.6,1.3-2.9,2.9-2.9s2.9,1.3,2.9,2.9l0,0c0,1.6-1.3,2.9-2.9,2.9S294.5,922.7,294.5,921.1 L294.5,921.1"></path> <path class="st2 MHeMzZqP_29" d="M269.3,813.3c0-1.6,1.3-2.9,2.9-2.9s2.9,1.3,2.9,2.9l0,0c0,1.6-1.3,2.9-2.9,2.9 C270.6,816.2,269.3,814.9,269.3,813.3"></path> <path class="st3 MHeMzZqP_30" d="M230.3,880.2c0-1.6,1.3-2.9,2.9-2.9c1.6,0,2.9,1.3,2.9,2.9s-1.3,2.9-2.9,2.9 C231.6,883.1,230.3,881.8,230.3,880.2"></path> <path class="st3 MHeMzZqP_31" d="M374,886c0-1.6,1.3-2.9,2.9-2.9s2.9,1.3,2.9,2.9l0,0c0,1.6-1.3,2.9-2.9,2.9S374,887.6,374,886L374,886"></path> <path class="st3 MHeMzZqP_32" d="M236.1,1015.9c0-1.6,1.3-2.9,2.9-2.9s2.9,1.3,2.9,2.9l0,0c0,1.6-1.3,2.9-2.9,2.9S236.1,1017.5,236.1,1015.9 L236.1,1015.9"></path> <path class="st3 MHeMzZqP_33" d="M593.3,970c0-1.6,1.3-2.9,2.9-2.9c1.6,0,2.9,1.3,2.9,2.9l0,0c0,1.6-1.3,2.9-2.9,2.9S593.3,971.6,593.3,970 L593.3,970"></path> <path class="st3 MHeMzZqP_34" d="M594.2,582.4c0-1.6,1.3-2.9,2.9-2.9c1.6,0,2.9,1.3,2.9,2.9l0,0c0,1.6-1.3,2.9-2.9,2.9 C595.5,585.3,594.2,584,594.2,582.4L594.2,582.4"></path> <path class="st2 MHeMzZqP_35" d="M590.7,994.4c0-1.6,1.3-2.9,2.9-2.9c1.6,0,2.9,1.3,2.9,2.9l0,0c0,1.6-1.3,2.9-2.9,2.9 C592,997.3,590.7,996,590.7,994.4L590.7,994.4"></path> <path class="st3 MHeMzZqP_36" d="M193.8,717.8c0-1.6,1.3-2.9,2.9-2.9c1.6,0,2.9,1.3,2.9,2.9s-1.3,2.9-2.9,2.9S193.8,719.4,193.8,717.8 L193.8,717.8"></path> <path class="st0 MHeMzZqP_37" d="M545.3,1190.9l-46.6,46.5H441H307.7H197.3"></path> <path class="st1 MHeMzZqP_38" d="M99.8,1324H132l27.3-27.2l60.9,0.9l16.3-22.1h135.3l37.1-37.2"></path> <path class="st2 MHeMzZqP_39" d="M169.3,1262.5c0-1.6,1.3-2.9,2.9-2.9c1.6,0,2.9,1.3,2.9,2.9s-1.3,2.9-2.9,2.9S169.3,1264.1,169.3,1262.5"></path> <path class="st3 MHeMzZqP_40" d="M94.8,1324.4c0-1.6,1.3-2.9,2.9-2.9s2.9,1.3,2.9,2.9l0,0c0,1.6-1.3,2.9-2.9,2.9 C96.1,1327.3,94.8,1326,94.8,1324.4L94.8,1324.4"></path> <path class="st2 MHeMzZqP_41" d="M194.2,1237.3c0-1.6,1.3-2.9,2.9-2.9c1.6,0,2.9,1.3,2.9,2.9s-1.3,2.9-2.9,2.9 C195.5,1240.2,194.2,1238.9,194.2,1237.3"></path> <path class="st1 MHeMzZqP_42" d="M236.5,1275.6H185l-11-11.1"></path> <path class="st4 MHeMzZqP_43" d="M537.9,1984"></path> <path class="st4 MHeMzZqP_44" d="M537.9,1841.3"></path> <path class="st5 MHeMzZqP_45" d="M252,2036.7"></path> <path class="st5 MHeMzZqP_46" d="M253.3,1725.4"></path> <path class="st0 MHeMzZqP_47" d="M569,1822.4L569,2360"></path> </g> <style data-made-with="vivus-instant">.MHeMzZqP_0{stroke-dasharray:458 460;stroke-dashoffset:459;animation:MHeMzZqP_draw 3333ms linear 0ms forwards;}.MHeMzZqP_1{stroke-dasharray:1082 1084;stroke-dashoffset:1083;animation:MHeMzZqP_draw 3333ms linear 35ms forwards;}.MHeMzZqP_2{stroke-dasharray:1964 1966;stroke-dashoffset:1965;animation:MHeMzZqP_draw 3333ms linear 70ms forwards;}.MHeMzZqP_3{stroke-dasharray:1043 1045;stroke-dashoffset:1044;animation:MHeMzZqP_draw 3333ms linear 106ms forwards;}.MHeMzZqP_4{stroke-dasharray:879 881;stroke-dashoffset:880;animation:MHeMzZqP_draw 3333ms linear 141ms forwards;}.MHeMzZqP_5{stroke-dasharray:870 872;stroke-dashoffset:871;animation:MHeMzZqP_draw 3333ms linear 177ms forwards;}.MHeMzZqP_6{stroke-dasharray:381 383;stroke-dashoffset:382;animation:MHeMzZqP_draw 3333ms linear 212ms forwards;}.MHeMzZqP_7{stroke-dasharray:153 155;stroke-dashoffset:154;animation:MHeMzZqP_draw 3333ms linear 248ms forwards;}.MHeMzZqP_8{stroke-dasharray:190 192;stroke-dashoffset:191;animation:MHeMzZqP_draw 3333ms linear 283ms forwards;}.MHeMzZqP_9{stroke-dasharray:152 154;stroke-dashoffset:153;animation:MHeMzZqP_draw 3333ms linear 319ms forwards;}.MHeMzZqP_10{stroke-dasharray:220 222;stroke-dashoffset:221;animation:MHeMzZqP_draw 3333ms linear 354ms forwards;}.MHeMzZqP_11{stroke-dasharray:280 282;stroke-dashoffset:281;animation:MHeMzZqP_draw 3333ms linear 390ms forwards;}.MHeMzZqP_12{stroke-dasharray:233 235;stroke-dashoffset:234;animation:MHeMzZqP_draw 3333ms linear 425ms forwards;}.MHeMzZqP_13{stroke-dasharray:464 466;stroke-dashoffset:465;animation:MHeMzZqP_draw 3333ms linear 460ms forwards;}.MHeMzZqP_14{stroke-dasharray:345 347;stroke-dashoffset:346;animation:MHeMzZqP_draw 3333ms linear 496ms forwards;}.MHeMzZqP_15{stroke-dasharray:208 210;stroke-dashoffset:209;animation:MHeMzZqP_draw 3333ms linear 531ms forwards;}.MHeMzZqP_16{stroke-dasharray:131 133;stroke-dashoffset:132;animation:MHeMzZqP_draw 3333ms linear 567ms forwards;}.MHeMzZqP_17{stroke-dasharray:283 285;stroke-dashoffset:284;animation:MHeMzZqP_draw 3333ms linear 602ms forwards;}.MHeMzZqP_18{stroke-dasharray:32 34;stroke-dashoffset:33;animation:MHeMzZqP_draw 3333ms linear 638ms forwards;}.MHeMzZqP_19{stroke-dasharray:19 21;stroke-dashoffset:20;animation:MHeMzZqP_draw 3333ms linear 673ms forwards;}.MHeMzZqP_20{stroke-dasharray:19 21;stroke-dashoffset:20;animation:MHeMzZqP_draw 3333ms linear 709ms forwards;}.MHeMzZqP_21{stroke-dasharray:19 21;stroke-dashoffset:20;animation:MHeMzZqP_draw 3333ms linear 744ms forwards;}.MHeMzZqP_22{stroke-dasharray:19 21;stroke-dashoffset:20;animation:MHeMzZqP_draw 3333ms linear 780ms forwards;}.MHeMzZqP_23{stroke-dasharray:19 21;stroke-dashoffset:20;animation:MHeMzZqP_draw 3333ms linear 815ms forwards;}.MHeMzZqP_24{stroke-dasharray:19 21;stroke-dashoffset:20;animation:MHeMzZqP_draw 3333ms linear 851ms forwards;}.MHeMzZqP_25{stroke-dasharray:19 21;stroke-dashoffset:20;animation:MHeMzZqP_draw 3333ms linear 886ms forwards;}.MHeMzZqP_26{stroke-dasharray:19 21;stroke-dashoffset:20;animation:MHeMzZqP_draw 3333ms linear 921ms forwards;}.MHeMzZqP_27{stroke-dasharray:19 21;stroke-dashoffset:20;animation:MHeMzZqP_draw 3333ms linear 957ms forwards;}.MHeMzZqP_28{stroke-dasharray:19 21;stroke-dashoffset:20;animation:MHeMzZqP_draw 3333ms linear 992ms forwards;}.MHeMzZqP_29{stroke-dasharray:19 21;stroke-dashoffset:20;animation:MHeMzZqP_draw 3333ms linear 1028ms forwards;}.MHeMzZqP_30{stroke-dasharray:19 21;stroke-dashoffset:20;animation:MHeMzZqP_draw 3333ms linear 1063ms forwards;}.MHeMzZqP_31{stroke-dasharray:19 21;stroke-dashoffset:20;animation:MHeMzZqP_draw 3333ms linear 1099ms forwards;}.MHeMzZqP_32{stroke-dasharray:19 21;stroke-dashoffset:20;animation:MHeMzZqP_draw 3333ms linear 1134ms forwards;}.MHeMzZqP_33{stroke-dasharray:19 21;stroke-dashoffset:20;animation:MHeMzZqP_draw 3333ms linear 1170ms forwards;}.MHeMzZqP_34{stroke-dasharray:19 21;stroke-dashoffset:20;animation:MHeMzZqP_draw 3333ms linear 1205ms forwards;}.MHeMzZqP_35{stroke-dasharray:19 21;stroke-dashoffset:20;animation:MHeMzZqP_draw 3333ms linear 1241ms forwards;}.MHeMzZqP_36{stroke-dasharray:19 21;stroke-dashoffset:20;animation:MHeMzZqP_draw 3333ms linear 1276ms forwards;}.MHeMzZqP_37{stroke-dasharray:368 370;stroke-dashoffset:369;animation:MHeMzZqP_draw 3333ms linear 1312ms forwards;}.MHeMzZqP_38{stroke-dasharray:347 349;stroke-dashoffset:348;animation:MHeMzZqP_draw 3333ms linear 1347ms forwards;}.MHeMzZqP_39{stroke-dasharray:19 21;stroke-dashoffset:20;animation:MHeMzZqP_draw 3333ms linear 1382ms forwards;}.MHeMzZqP_40{stroke-dasharray:19 21;stroke-dashoffset:20;animation:MHeMzZqP_draw 3333ms linear 1418ms forwards;}.MHeMzZqP_41{stroke-dasharray:19 21;stroke-dashoffset:20;animation:MHeMzZqP_draw 3333ms linear 1453ms forwards;}.MHeMzZqP_42{stroke-dasharray:68 70;stroke-dashoffset:69;animation:MHeMzZqP_draw 3333ms linear 1489ms forwards;}.MHeMzZqP_43{stroke-dasharray:0 2;stroke-dashoffset:1;animation:MHeMzZqP_draw 3333ms linear 1524ms forwards;}.MHeMzZqP_44{stroke-dasharray:0 2;stroke-dashoffset:1;animation:MHeMzZqP_draw 3333ms linear 1560ms forwards;}.MHeMzZqP_45{stroke-dasharray:0 2;stroke-dashoffset:1;animation:MHeMzZqP_draw 3333ms linear 1595ms forwards;}.MHeMzZqP_46{stroke-dasharray:0 2;stroke-dashoffset:1;animation:MHeMzZqP_draw 3333ms linear 1631ms forwards;}.MHeMzZqP_47{stroke-dasharray:538 540;stroke-dashoffset:539;animation:MHeMzZqP_draw 3333ms linear 1666ms forwards;}@keyframes MHeMzZqP_draw{100%{stroke-dashoffset:0;}}@keyframes MHeMzZqP_fade{0%{stroke-opacity:1;}95.65217391304348%{stroke-opacity:1;}100%{stroke-opacity:0;}}</style></svg> 