<?xml version="1.0" encoding="UTF-8"?> <!--?xml version="1.0" encoding="utf-8"?--> <!-- Generator: Adobe Illustrator 22.0.1, SVG Export Plug-In . SVG Version: 6.00 Build 0) --> <svg xmlns="http://www.w3.org/2000/svg" xmlns:xlink="http://www.w3.org/1999/xlink" id="Capa_1" x="0px" y="0px" viewBox="0 0 750.2 1201.7" style="" xml:space="preserve"> <style type="text/css"> .st0{opacity:0.76;} .st1{opacity:0.36;fill:none;stroke:#FFCFCF;stroke-width:0.5486;stroke-miterlimit:10;} .st2{opacity:0.4311;fill:none;stroke:#FFD2D2;stroke-width:0.7099;stroke-miterlimit:10;} .st3{opacity:0.5022;fill:none;stroke:#FFD6D6;stroke-width:0.8712;stroke-miterlimit:10;} .st4{opacity:0.5733;fill:none;stroke:#FFD9D9;stroke-width:1.0324;stroke-miterlimit:10;} .st5{opacity:0.6444;fill:none;stroke:#FFDDDD;stroke-width:1.1937;stroke-miterlimit:10;} .st6{opacity:0.7156;fill:none;stroke:#FFE0E0;stroke-width:1.355;stroke-miterlimit:10;} .st7{opacity:0.7867;fill:none;stroke:#FFE4E4;stroke-width:1.5162;stroke-miterlimit:10;} .st8{opacity:0.8578;fill:none;stroke:#FFE7E7;stroke-width:1.6775;stroke-miterlimit:10;} .st9{opacity:0.9289;fill:none;stroke:#FFEBEB;stroke-width:1.8387;stroke-miterlimit:10;} .st10{fill:none;stroke:#FFEEEE;stroke-width:2;stroke-miterlimit:10;} </style> <g class="st0"> <path class="st1 WnJkZDJB_0" d="M258.1,19.9c0,0-165.6,114.9-95.3,145.7s300.6,35.3,294.8,107.7c-8,100.1-222.5,160.2-274.8,211.1 s231.6,178.9,334.5,251.3c236,166,395.2,271.1-198.6,452.9"></path> <path class="st2 WnJkZDJB_1" d="M264.6,17.9c0,0-42.4,37.1-72.9,72.1c-24.4,28-42.8,54.4-16.3,67.4c4.8,2.4,11.2,4.9,19.6,7.4 c81,24.2,268.2,38.6,252.1,104.4c-17.7,72.2-125.3,119.8-196.8,164c-24.8,15.3-45.8,28.9-56.7,42.7 c-42,53.1,214.3,180.4,302.9,255.2c43.6,36.8,85.7,68.1,114.3,100.9c103.2,118.7,86.7,225.5-326,351.9"></path> <path class="st3 WnJkZDJB_2" d="M271.1,15.8c0,0-33.9,39-61.5,72.3c-21.9,26.4-43,48.7-21.5,61c3.7,2.2,9.3,4.8,18.1,7.5 c75.6,23.6,257.6,43.1,230.4,108.3c-29.2,70.1-125.2,113-185.7,158.9c-20.6,15.6-38.2,29-46.6,43.4 C172.5,522.4,401,648.6,475.6,726.4c35.6,37.1,72.3,67.1,92.2,100.6c74.2,124.9,44.1,241.5-317,352.1"></path> <path class="st4 WnJkZDJB_3" d="M277.5,13.8c0,0-25.4,40.8-50.1,72.4c-19.5,24.9-43,42.9-26.7,54.6c2.7,1.9,7.5,4.6,16.6,7.6 c70.1,22.7,247.2,47.5,208.8,112.3c-40.4,68.1-124.6,105.7-174.6,153.8c-16.3,15.7-30.7,29-36.4,44.2 c-21.6,57.1,178.8,181.5,239.7,263c27.7,37,58.8,66.8,70.1,100.2c45.2,133.6,1.5,257.6-308.1,352.4"></path> <path class="st5 WnJkZDJB_4" d="M284,11.8c0,0-16.9,42.7-38.8,72.6c-17,23.3-44.6,39.2-31.9,48.3c1.3,2,5.7,4.5,15.1,7.7 c64.7,21.8,237.1,52,187.1,116.3c-51.4,66.2-123.9,97.7-163.6,148.7c-12.1,15.5-23.1,29-26.2,44.9C214.2,509,386.9,630.9,433.9,717 c19.9,36.5,44.7,67,48,99.8c14.5,144.5-41.1,273.6-299.1,352.6"></path> <path class="st6 WnJkZDJB_5" d="M290.5,9.7c0,0-8.5,44.5-27.4,72.8c-14.6,21.7-45.1,34-37.1,41.9c0.2,1.9,3.8,4.3,13.6,7.7 c59.3,20.8,227,56.7,165.5,120.3c-62.3,64.4-123.3,88.8-152.5,143.6c-8,15-15.6,29-16.1,45.6c-1.7,60.7,144.1,179,176.5,270.7 c12.6,35.6,29.9,67.4,25.9,99.5c-19.3,155.9-83.7,289.7-290.1,352.9"></path> <path class="st7 WnJkZDJB_6" d="M296.9,7.7c0,0,0,46.3-16,72.9c-12.1,20.2-45.6,28.8-42.3,35.5c-1,1.7,2,4.1,12.1,7.8 c54,19.6,217.1,61.5,143.8,124.3c-73.1,62.7-123.7,78.9-141.4,138.5c-4.2,14.3-8.1,29-5.9,46.4c8.1,62.5,128.4,176.7,144.9,274.6 c5.8,34.4,14.6,67.4,3.9,99.1c-56.1,166-126.3,305.8-281.1,353.1"></path> <path class="st8 WnJkZDJB_7" d="M303.4,5.6c0,0,8.4,48.1-4.7,73.1c-9.7,18.6-46.1,23.7-47.5,29.1c-2.1,1.6,0.1,3.9,10.6,7.9 C310.6,134.2,469,182.1,384.1,244c-84,61.1-126.1,68.8-130.3,133.4c-0.9,13.5-0.7,29.1,4.3,47.1C275.8,488.8,372.7,599,371.3,703 c-0.5,33.2-1,67.1-18.2,98.8c-94.5,173.8-169,321.8-272.2,353.4"></path> <path class="st9 WnJkZDJB_8" d="M309.9,3.6c0,0,16.8,49.9,6.7,73.2c-7.3,17-46.3,19.1-52.7,22.7c-3.1,1.8-1.7,3.7,9.2,8 c43.4,17.2,197.2,71.4,100.5,132.2C278.8,299.4,243,299.4,254.3,368c2.1,12.9,6.7,29.1,14.4,47.8c27.4,66.4,102.7,173.4,81.7,282.4 c-6.3,32.5-16.5,66.3-40.3,98.4C176.8,976.2,98.5,1134.5,46.9,1150.3"></path> <path class="st10 WnJkZDJB_9" d="M316.4,1.6c0,0,25.1,51.7,18.1,73.4s-88.4,8.6-50.2,24.4s187.2,76.5,78.9,136.2 c-105.6,58.2-136.3,52.3-108.2,123.2s179.2,253.7,12.2,432.9c-171.5,184-254.2,353.9-254.2,353.9"></path> </g> <style data-made-with="vivus-instant">.WnJkZDJB_0{stroke-dasharray:2128 2130;stroke-dashoffset:2129;animation:WnJkZDJB_draw 3333ms ease-in-out 0ms forwards;}.WnJkZDJB_1{stroke-dasharray:1990 1992;stroke-dashoffset:1991;animation:WnJkZDJB_draw 3333ms ease-in-out 185ms forwards;}.WnJkZDJB_2{stroke-dasharray:1863 1865;stroke-dashoffset:1864;animation:WnJkZDJB_draw 3333ms ease-in-out 370ms forwards;}.WnJkZDJB_3{stroke-dasharray:1750 1752;stroke-dashoffset:1751;animation:WnJkZDJB_draw 3333ms ease-in-out 555ms forwards;}.WnJkZDJB_4{stroke-dasharray:1653 1655;stroke-dashoffset:1654;animation:WnJkZDJB_draw 3333ms ease-in-out 740ms forwards;}.WnJkZDJB_5{stroke-dasharray:1572 1574;stroke-dashoffset:1573;animation:WnJkZDJB_draw 3333ms ease-in-out 925ms forwards;}.WnJkZDJB_6{stroke-dasharray:1512 1514;stroke-dashoffset:1513;animation:WnJkZDJB_draw 3333ms ease-in-out 1111ms forwards;}.WnJkZDJB_7{stroke-dasharray:1475 1477;stroke-dashoffset:1476;animation:WnJkZDJB_draw 3333ms ease-in-out 1296ms forwards;}.WnJkZDJB_8{stroke-dasharray:1462 1464;stroke-dashoffset:1463;animation:WnJkZDJB_draw 3333ms ease-in-out 1481ms forwards;}.WnJkZDJB_9{stroke-dasharray:1473 1475;stroke-dashoffset:1474;animation:WnJkZDJB_draw 3333ms ease-in-out 1666ms forwards;}@keyframes WnJkZDJB_draw{100%{stroke-dashoffset:0;}}@keyframes WnJkZDJB_fade{0%{stroke-opacity:1;}95.65217391304348%{stroke-opacity:1;}100%{stroke-opacity:0;}}</style></svg> 